<svg xmlns:dc="http://purl.org/dc/elements/1.1/" xmlns:cc="http://creativecommons.org/ns#" xmlns:rdf="http://www.w3.org/1999/02/22-rdf-syntax-ns#" xmlns:svg="http://www.w3.org/2000/svg" xmlns="http://www.w3.org/2000/svg" xmlns:sodipodi="http://sodipodi.sourceforge.net/DTD/sodipodi-0.dtd" xmlns:inkscape="http://www.inkscape.org/namespaces/inkscape" width="1000" height="333.20908" id="svg11870" version="1.1" inkscape:version="0.48.5 r10040" sodipodi:docname="New document 12">
  <defs id="defs11872"/>
  <sodipodi:namedview id="base" pagecolor="#ffffff" bordercolor="#666666" borderopacity="1.0" inkscape:pageopacity="0.0" inkscape:pageshadow="2" inkscape:zoom="0.28505859" inkscape:cx="946.99002" inkscape:cy="-397.25595" inkscape:document-units="px" inkscape:current-layer="layer1" showgrid="false" fit-margin-top="0" fit-margin-left="0" fit-margin-right="0" fit-margin-bottom="0" inkscape:window-width="1032" inkscape:window-height="1031" inkscape:window-x="883" inkscape:window-y="-18" inkscape:window-maximized="0"/>
  <metadata id="metadata11875">
    <rdf:RDF>
      <cc:Work rdf:about="">
        <dc:format>image/svg+xml</dc:format>
        <dc:type rdf:resource="http://purl.org/dc/dcmitype/StillImage"/>
        <dc:title/>
      </cc:Work>
    </rdf:RDF>
  </metadata>
  <g inkscape:label="Layer 1" inkscape:groupmode="layer" id="layer1" transform="translate(-294.61999,-225.93645)">
    <g id="g11459" transform="matrix(7.7755661,0,0,-7.7755661,530.53067,262.01826)" style="fill:#272425;fill-opacity:1">
      <path d="m 0,0 -6.615,-24.176 -3.844,0 -4.676,17.561 -4.745,-17.561 -3.845,0 L -30.34,0 -26.53,0 -21.82,-17.561 -17.075,0 -13.3,0 -8.52,-17.561 -3.809,0 0,0 z" style="fill:#272425;fill-opacity:1;fill-rule:nonzero;stroke:none" id="path11461" inkscape:connector-curvature="0"/>
    </g>
    <g id="g11463" transform="matrix(7.7755661,0,0,-7.7755661,544.24758,262.55695)" style="fill:#272425;fill-opacity:1">
      <path d="m 0,0 3.81,0.312 0,-5.922 -0.07,-2.217 0.139,0 c 1.766,0.658 3.186,0.97 4.918,0.97 3.083,0 5.161,-1.386 5.161,-6.685 l 0,-10.564 -3.81,0 0,10.252 c 0,3.187 -1.559,3.602 -3.325,3.602 -1.109,0 -2.044,-0.242 -3.013,-0.519 l 0,-13.335 -3.81,0 L 0,0 z" style="fill:#272425;fill-opacity:1;fill-rule:nonzero;stroke:none" id="path11465" inkscape:connector-curvature="0"/>
    </g>
    <path d="m 678.61944,317.77062 29.62491,0 0,132.23128 -29.62491,0 0,-132.23128 z m 14.81245,-53.33261 c 15.34897,0 17.77495,8.89525 17.77495,18.85575 0,9.9605 -3.23464,19.12012 -17.77495,19.12012 -14.54031,0 -17.51057,-9.15962 -17.51057,-19.12012 0,-9.9605 2.69812,-18.85575 17.51057,-18.85575" style="fill:#272425;fill-opacity:1;fill-rule:nonzero;stroke:none" id="path11467" inkscape:connector-curvature="0"/>
    <g id="g11469" transform="matrix(7.7755661,0,0,-7.7755661,733.28322,317.76844)" style="fill:#272425;fill-opacity:1">
      <path d="m 0,0 2.598,0 0.519,-1.385 0.243,0 c 1.004,0.865 2.597,1.628 4.676,1.628 0.242,0 0.519,0 0.796,-0.035 l 0,-3.74 c -0.692,0.103 -1.42,0.208 -2.147,0.208 -1.04,0 -1.871,-0.242 -2.875,-0.694 l 0,-12.988 -3.81,0 L 0,0 z" style="fill:#272425;fill-opacity:1;fill-rule:nonzero;stroke:none" id="path11471" inkscape:connector-curvature="0"/>
    </g>
    <g id="g11473" transform="matrix(7.7755661,0,0,-7.7755661,814.60395,449.9991)" style="fill:#272425;fill-opacity:1">
      <path d="M 0,0 0,24.106 3.811,24.418 3.811,0 0,0 z" style="fill:#272425;fill-opacity:1;fill-rule:nonzero;stroke:none" id="path11475" inkscape:connector-curvature="0"/>
    </g>
    <g id="g11477" transform="matrix(7.7755661,0,0,-7.7755661,1082.8159,384.55185)" style="fill:#272425;fill-opacity:1">
      <path d="m 0,0 c 0,3.221 -0.52,5.853 -3.567,5.853 -3.082,0 -3.845,-2.528 -3.845,-5.853 0,-3.082 0.624,-5.749 3.672,-5.749 C -0.692,-5.749 0,-3.221 0,0 M -3.602,8.832 C 1.801,8.832 3.88,5.646 3.88,0 c 0,-5.299 -1.94,-8.763 -7.551,-8.763 -5.611,0 -7.586,3.464 -7.586,8.763 0,5.646 2.252,8.832 7.655,8.832" style="fill:#272425;fill-opacity:1;fill-rule:nonzero;stroke:none" id="path11479" inkscape:connector-curvature="0"/>
    </g>
    <g id="g11481" transform="matrix(7.7755661,0,0,-7.7755661,1215.6537,384.55185)" style="fill:#272425;fill-opacity:1">
      <path d="M 0,0 C 0,3.221 -0.521,5.853 -3.568,5.853 -6.65,5.853 -7.412,3.325 -7.412,0 c 0,-3.082 0.623,-5.749 3.671,-5.749 C -0.693,-5.749 0,-3.221 0,0 m -3.603,8.832 c 5.404,0 7.482,-3.186 7.482,-8.832 0,-5.299 -1.94,-8.763 -7.551,-8.763 -5.611,0 -7.585,3.464 -7.585,8.763 0,5.646 2.251,8.832 7.654,8.832" style="fill:#272425;fill-opacity:1;fill-rule:nonzero;stroke:none" id="path11483" inkscape:connector-curvature="0"/>
    </g>
    <g id="g11485" transform="matrix(7.7755661,0,0,-7.7755661,1264.9951,449.9991)" style="fill:#272425;fill-opacity:1">
      <path d="M 0,0 0,24.106 3.81,24.418 3.81,0 0,0 z" style="fill:#272425;fill-opacity:1;fill-rule:nonzero;stroke:none" id="path11487" inkscape:connector-curvature="0"/>
    </g>
    <g id="g11489" transform="matrix(7.7755661,0,0,-7.7755661,898.09257,425.4874)" style="fill:#272425;fill-opacity:1">
      <path d="m 0,0 c 1.073,-0.034 1.662,-0.068 2.771,-0.068 2.354,0 3.914,1.246 3.914,6.2 0,3.393 -1.386,4.293 -3.88,4.293 C 1.835,10.425 0.935,10.253 0,9.94 L 0,0 z m -3.811,13.854 2.875,0 0.312,-1.247 c 1.144,0.624 3.255,1.49 5.161,1.49 3.463,0 5.991,-2.529 5.991,-8.589 0,-5.958 -2.668,-8.903 -7.099,-8.903 C 1.797,-3.395 0,-3.048 0,-3.048 l 0,-7.792 -3.811,-0.416 0,25.11 z" style="fill:#272425;fill-opacity:1;fill-rule:nonzero;stroke:none" id="path11491" inkscape:connector-curvature="0"/>
    </g>
    <g id="g11493" transform="matrix(7.7755661,0,0,-7.7755661,1015.1211,236.52)" style="fill:#e6b72a;fill-opacity:1">
      <path d="m 0,0 c -2.85,3.302 -11.89,0.4 -21.978,-6.582 l 0,-1.76 c 8.885,6.316 16.717,9.23 18.96,6.63 2.801,-3.245 -4.167,-13.859 -15.563,-23.695 -11.398,-9.836 -22.913,-15.17 -25.713,-11.924 -1.455,1.685 -0.269,5.358 2.8,9.876 l -1.783,0 c -3.8,-5.666 -5.224,-10.427 -3.274,-12.688 3.557,-4.122 16.861,1.517 29.712,12.607 C -3.989,-16.446 3.557,-4.121 0,0" style="fill:#e6b72a;fill-opacity:1;fill-rule:nonzero;stroke:none" id="path11495" inkscape:connector-curvature="0"/>
    </g>
  </g>
</svg>
